<svg width="67" height="66" viewBox="0 0 67 66" fill="none" xmlns="http://www.w3.org/2000/svg">
<rect x="5.22119" y="5" width="56" height="56" rx="28" fill="#F5E0CC"/>
<rect x="5.22119" y="5" width="56" height="56" rx="28" stroke="#E6E8FB" stroke-width="10"/>
<g clip-path="url(#clip0_107_7808)">
<path d="M21.5547 27.1666L31.0804 33.8346C31.8518 34.3746 32.2375 34.6446 32.657 34.7492C33.0276 34.8415 33.4151 34.8415 33.7857 34.7492C34.2052 34.6446 34.5909 34.3746 35.3623 33.8346L44.888 27.1666M27.1547 42.3333H39.288C41.2482 42.3333 42.2283 42.3333 42.977 41.9518C43.6356 41.6163 44.171 41.0808 44.5065 40.4223C44.888 39.6736 44.888 38.6935 44.888 36.7333V29.2666C44.888 27.3064 44.888 26.3264 44.5065 25.5777C44.171 24.9191 43.6356 24.3837 42.977 24.0481C42.2283 23.6666 41.2482 23.6666 39.288 23.6666H27.1547C25.1945 23.6666 24.2144 23.6666 23.4657 24.0481C22.8072 24.3837 22.2717 24.9191 21.9362 25.5777C21.5547 26.3264 21.5547 27.3064 21.5547 29.2666V36.7333C21.5547 38.6935 21.5547 39.6736 21.9362 40.4223C22.2717 41.0808 22.8072 41.6163 23.4657 41.9518C24.2144 42.3333 25.1945 42.3333 27.1547 42.3333Z" stroke="#EB5810" stroke-width="2" stroke-linecap="round" stroke-linejoin="round"/>
</g>
<defs>
<clipPath id="clip0_107_7808">
<rect width="28" height="28" fill="white" transform="translate(19.2212 19)"/>
</clipPath>
</defs>
</svg>
