<svg width="380" height="273" viewBox="0 0 380 273" fill="none" xmlns="http://www.w3.org/2000/svg">
<rect width="380" height="273" rx="12" fill="url(#paint0_linear_58_1825)"/>
<g clip-path="url(#clip0_58_1825)">
<path fill-rule="evenodd" clip-rule="evenodd" d="M182.832 192.097C180.639 192.264 178.682 192.754 177.178 193.512C176.136 194.037 175.535 194.455 174.777 195.181C173.702 196.211 172.967 197.378 172.487 198.816C171.966 200.378 172.002 200.917 172.651 201.255C172.818 201.341 177.445 201.886 178.015 201.886C178.561 201.886 178.819 201.569 179.154 200.488C179.684 198.775 181.166 197.784 183.199 197.782C185.14 197.78 186.38 198.719 186.707 200.438C186.818 201.016 186.852 203.625 186.749 203.625C186.549 203.625 183.255 203.983 182.398 204.099C178.21 204.661 175.698 205.661 173.844 207.503C172.111 209.226 171.241 211.443 171.24 214.147C171.239 216.701 171.937 218.669 173.374 220.163C174.544 221.379 175.998 222.08 177.913 222.352C178.659 222.458 180.886 222.396 181.729 222.245C183.759 221.884 185.214 221.099 187.149 219.325L187.928 218.61L188.247 219.091C189.005 220.237 189.853 221.208 190.705 221.907C191.24 222.346 191.742 222.353 192.273 221.928C192.593 221.672 195.87 218.836 196.268 218.471C196.806 217.976 196.737 217.625 195.854 216.391C195.056 215.275 194.659 214.477 194.487 213.643C194.366 213.056 194.359 212.68 194.357 207.302C194.357 204.158 194.326 201.099 194.29 200.505C194.124 197.768 193.48 196.162 191.979 194.735C190.621 193.444 188.665 192.604 186.139 192.227C185.449 192.124 183.486 192.047 182.832 192.097ZM251.883 192.128C246.956 192.564 243.554 194.703 242.128 198.26C241.78 199.128 241.497 200.268 241.554 200.571C241.61 200.873 241.827 201.143 242.106 201.26C242.316 201.348 246.92 201.886 247.457 201.886C247.958 201.885 248.32 201.504 248.474 200.816C248.628 200.13 248.987 199.488 249.504 198.976C250.328 198.159 251.273 197.793 252.584 197.781C253.404 197.774 253.85 197.861 254.464 198.15C255.042 198.421 255.491 198.849 255.785 199.409C256.141 200.088 256.225 200.571 256.272 202.204C256.307 203.458 256.3 203.625 256.209 203.625C256.04 203.625 252.981 203.951 252.117 204.062C248.469 204.527 246.019 205.325 244.326 206.597C243.611 207.135 242.655 208.123 242.205 208.792C241.533 209.788 241.076 210.936 240.814 212.284C240.651 213.121 240.651 215.174 240.814 216.061C241.303 218.721 242.677 220.603 244.893 221.647C246.049 222.193 247.188 222.413 248.844 222.413C252.172 222.413 254.289 221.542 256.771 219.151L257.351 218.593L257.701 219.116C258.325 220.049 258.874 220.706 259.629 221.425C260.808 222.549 261.033 222.545 262.356 221.382C262.825 220.97 263.779 220.145 264.477 219.548C265.175 218.951 265.814 218.369 265.897 218.255C266.193 217.846 266.072 217.455 265.336 216.457C265.019 216.028 264.615 215.371 264.413 214.958C263.774 213.651 263.822 214.271 263.774 206.6C263.736 200.653 263.717 199.764 263.616 199.157C263.291 197.21 262.688 195.985 261.479 194.814C260.59 193.954 259.779 193.449 258.493 192.958C257.752 192.675 256.464 192.353 255.557 192.224C254.663 192.097 252.789 192.048 251.883 192.128ZM213.298 192.395C212.092 192.558 210.771 193.1 209.909 193.785C209.021 194.491 208.345 195.381 207.746 196.631L207.39 197.373L207.388 195.54C207.385 193.714 207.385 193.706 207.221 193.426C206.926 192.922 206.956 192.926 203.861 192.926C201.134 192.926 201.124 192.927 200.904 193.077C200.782 193.16 200.62 193.312 200.543 193.416L200.403 193.605L200.385 207.357C200.365 222.793 200.323 221.512 200.857 221.865L201.129 222.046H204.04C206.831 222.046 206.961 222.04 207.178 221.912C207.303 221.838 207.468 221.693 207.546 221.59L207.686 221.401L207.723 212.462C207.756 204.486 207.772 203.452 207.873 202.856C208.265 200.538 209.141 199.435 210.776 199.197C211.454 199.099 212.233 199.194 212.771 199.44C213.755 199.891 214.337 201.013 214.532 202.836C214.576 203.252 214.601 206.693 214.601 212.385C214.601 221.988 214.582 221.458 214.946 221.786C215.032 221.863 215.204 221.961 215.329 222.003C215.619 222.1 220.806 222.109 221.152 222.013C221.464 221.926 221.812 221.558 221.889 221.235C221.924 221.085 221.948 217.412 221.945 212.484C221.94 203.642 221.955 203.094 222.225 202.02C222.652 200.329 224.008 199.208 225.623 199.213C226.916 199.216 227.867 199.72 228.317 200.638C228.749 201.522 228.723 200.87 228.763 211.615L228.799 221.377L228.954 221.595C229.282 222.055 229.213 222.046 232.44 222.046C235.236 222.046 235.355 222.041 235.58 221.91C235.719 221.83 235.876 221.654 235.966 221.476L236.118 221.177L236.096 210.044C236.071 197.815 236.098 198.613 235.672 197.207C234.938 194.783 232.957 193.088 230.153 192.482C229.351 192.309 227.749 192.321 226.895 192.507C224.455 193.038 222.674 194.435 221.587 196.67L221.293 197.274L220.929 196.577C220.367 195.5 219.98 194.957 219.249 194.223C218.275 193.244 217.258 192.708 215.904 192.458C215.346 192.355 213.86 192.32 213.298 192.395ZM303.629 192.368C301.25 192.639 299.751 193.171 298.117 194.322C297.125 195.022 295.84 196.424 295.104 197.609C293 201.001 292.161 206.007 292.878 210.879C293.194 213.02 293.942 215.284 294.868 216.898C295.984 218.841 297.609 220.464 299.364 221.389C300.177 221.817 301.361 222.229 302.346 222.428C303.33 222.626 305.614 222.646 306.569 222.466C308.913 222.023 310.833 221.007 312.487 219.334C314.814 216.982 316.254 213.605 316.628 209.621C316.731 208.524 316.673 205.675 316.527 204.628C315.519 197.43 311.629 192.989 305.81 192.395C305.163 192.329 304.085 192.315 303.629 192.368ZM333.728 192.394C331.03 192.716 329.224 194.198 327.872 197.196L327.582 197.841V195.816C327.581 193.597 327.57 193.524 327.184 193.16L326.971 192.96L324.186 192.942C321.076 192.922 321.097 192.919 320.785 193.388L320.633 193.615V207.449C320.633 222.399 320.61 221.455 320.977 221.786C321.063 221.863 321.236 221.961 321.361 222.003C321.677 222.109 326.832 222.109 327.185 222.003C327.325 221.961 327.539 221.824 327.661 221.698L327.882 221.47L327.923 212.999C327.952 206.972 327.986 204.373 328.043 203.992C328.425 201.429 329.182 200.05 330.566 199.398C331.961 198.741 333.628 199.201 334.356 200.443C334.592 200.846 334.849 201.646 334.976 202.372C335.071 202.915 335.086 204.097 335.107 212.15C335.133 222.363 335.094 221.586 335.594 221.897C335.829 222.044 335.872 222.046 338.605 222.066C341.671 222.088 341.794 222.075 342.157 221.701L342.38 221.47L342.4 211.594C342.423 200.269 342.402 199.673 341.914 197.736C341.452 195.9 340.504 194.493 339.081 193.532C337.684 192.588 335.678 192.161 333.728 192.394ZM270.674 192.969C270.555 193.028 270.39 193.186 270.307 193.319C270.158 193.558 270.156 193.593 270.156 195.813C270.156 197.983 270.161 198.072 270.294 198.25C270.369 198.351 270.514 198.496 270.616 198.572C270.797 198.708 270.884 198.711 275.507 198.744L280.213 198.777L274.946 206.34C272.05 210.499 269.614 214.055 269.534 214.241C269.214 214.985 269.189 215.259 269.188 218.034C269.188 220.519 269.194 220.652 269.32 220.86C269.479 221.12 269.822 221.343 270.063 221.343C270.158 221.343 270.584 221.179 271.008 220.977C273.83 219.634 276.44 219.049 279.61 219.048C282.812 219.048 285.455 219.631 288.247 220.954C288.967 221.295 289.136 221.351 289.333 221.314C289.641 221.257 290.007 220.884 290.102 220.534C290.151 220.349 290.169 219.523 290.154 218.042C290.133 215.879 290.129 215.819 289.975 215.477C289.753 214.986 289.422 214.717 288.479 214.262C286.104 213.116 283.955 212.643 280.3 212.464L279.354 212.417L284.13 205.597C286.758 201.846 289.028 198.576 289.175 198.329C289.611 197.599 289.632 197.47 289.632 195.471C289.632 193.756 289.626 193.679 289.481 193.397C289.181 192.811 290.047 192.859 279.878 192.861C271.779 192.862 270.869 192.873 270.674 192.969ZM305.85 198.131C307.476 198.638 308.22 200.079 308.652 203.558C308.752 204.366 308.773 205.045 308.773 207.637C308.773 209.774 308.747 210.944 308.689 211.381C308.31 214.216 307.52 215.868 306.219 216.547C305.619 216.86 305.158 216.953 304.382 216.92C303.81 216.895 303.693 216.866 303.24 216.642C301.704 215.882 300.851 213.749 300.585 210.003C300.478 208.497 300.538 203.969 300.678 203.006C301.114 200.012 302.117 198.427 303.823 198.036C304.348 197.916 305.302 197.961 305.85 198.131ZM186.787 209.927C186.752 212.038 186.706 212.448 186.397 213.385C185.816 215.153 184.591 216.489 183.175 216.898C182.881 216.983 182.596 217.005 182.038 216.988C181.348 216.966 181.257 216.947 180.828 216.735C180.238 216.445 179.799 216.005 179.495 215.4C179.143 214.701 179.037 214.175 179.042 213.153C179.047 212.111 179.186 211.498 179.591 210.726C180.54 208.917 182.78 207.987 186.363 207.913L186.821 207.904L186.787 209.927ZM256.29 209.091C256.287 210.569 256.201 211.854 256.057 212.551C255.802 213.79 255.18 215.017 254.416 215.786C253.59 216.617 252.738 216.993 251.678 216.996C250.643 216.999 250.045 216.76 249.414 216.093C248.721 215.359 248.436 214.38 248.493 212.919C248.545 211.576 248.85 210.734 249.579 209.923C250.726 208.646 252.814 207.972 255.808 207.913L256.292 207.904L256.29 209.091ZM278.181 223.287C274.813 223.529 271.349 224.653 269.604 226.071C269.098 226.481 268.969 226.965 269.296 227.223C269.519 227.398 269.732 227.398 271.226 227.228C274.476 226.856 277.565 226.723 279.081 226.891C280.404 227.037 281.279 227.361 281.578 227.814C282.318 228.936 281.665 232.054 279.558 237.458C278.824 239.342 278.751 239.691 279.045 239.923C279.449 240.24 279.95 239.995 280.962 238.984C283.45 236.498 285.264 232.687 286 228.398C286.144 227.56 286.169 225.336 286.039 224.908C285.992 224.753 285.867 224.54 285.76 224.433C284.909 223.581 281.427 223.055 278.181 223.287ZM195.65 225.15C195.18 225.437 195.209 226.08 195.714 226.572C196.13 226.977 197.612 228.244 198.6 229.04C207.99 236.608 219.378 241.505 231.308 243.105C240.12 244.286 248.57 243.798 257.261 241.604C264.319 239.822 270.472 237.181 275.735 233.674C277.653 232.396 278.023 232.063 278.148 231.504C278.323 230.727 277.636 229.974 276.751 229.971C276.454 229.969 276.086 230.093 274.479 230.732C265.115 234.459 255.545 236.55 245.535 237.056C243.845 237.142 239.476 237.142 237.685 237.056C223.573 236.383 209.899 232.541 197.965 225.896C196.26 224.946 196.079 224.888 195.65 225.15Z" fill="#FFFFFE"/>
</g>
<path d="M297.457 50.628C296.43 50.6093 295.431 50.5253 294.46 50.376C293.49 50.208 292.706 49.984 292.108 49.704V47.324C292.743 47.6227 293.555 47.884 294.544 48.108C295.534 48.332 296.504 48.4533 297.457 48.472V42.816C296.542 42.5547 295.739 42.2747 295.048 41.976C294.376 41.6587 293.826 41.304 293.396 40.912C292.967 40.52 292.64 40.072 292.416 39.568C292.211 39.0453 292.108 38.448 292.108 37.776C292.108 36.8613 292.323 36.0773 292.752 35.424C293.2 34.7707 293.826 34.2573 294.628 33.884C295.431 33.492 296.374 33.268 297.457 33.212V30.748H299.248V33.184C300.238 33.2027 301.134 33.3147 301.936 33.52C302.758 33.7067 303.505 33.94 304.177 34.22L303.421 36.292C302.823 36.0493 302.16 35.844 301.432 35.676C300.723 35.4893 299.995 35.368 299.248 35.312V40.94C300.48 41.2947 301.507 41.6773 302.328 42.088C303.15 42.48 303.766 42.9747 304.177 43.572C304.606 44.1507 304.821 44.9067 304.821 45.84C304.821 47.1467 304.335 48.2107 303.364 49.032C302.394 49.8347 301.022 50.3293 299.248 50.516V53.624H297.457V50.628ZM299.248 48.332C300.35 48.22 301.153 47.968 301.657 47.576C302.16 47.1653 302.412 46.6427 302.412 46.008C302.412 45.5413 302.319 45.1587 302.132 44.86C301.946 44.5427 301.619 44.272 301.153 44.048C300.705 43.824 300.07 43.6093 299.248 43.404V48.332ZM297.457 35.368C296.784 35.4053 296.234 35.5267 295.804 35.732C295.375 35.9187 295.048 36.1707 294.824 36.488C294.619 36.8053 294.516 37.1693 294.516 37.58C294.516 38.0653 294.6 38.4853 294.768 38.84C294.955 39.176 295.263 39.4653 295.692 39.708C296.122 39.932 296.71 40.1373 297.457 40.324V35.368ZM321.796 46.568C321.796 48.4907 321.105 49.9373 319.724 50.908C318.361 51.86 316.691 52.336 314.712 52.336C312.845 52.336 311.24 51.8507 309.896 50.88C308.552 49.8907 307.805 48.5093 307.656 46.736H310.372C310.577 47.7627 311.081 48.5467 311.884 49.088C312.687 49.6107 313.629 49.872 314.712 49.872C315.944 49.872 316.971 49.5827 317.792 49.004C318.632 48.4253 319.052 47.5573 319.052 46.4C319.052 45.2053 318.679 44.3373 317.932 43.796C317.204 43.236 316.224 42.956 314.992 42.956H311.492V40.492H315.076C316.121 40.492 316.943 40.2307 317.54 39.708C318.156 39.1667 318.464 38.3827 318.464 37.356C318.464 36.3107 318.1 35.5267 317.372 35.004C316.644 34.4813 315.739 34.22 314.656 34.22C313.629 34.22 312.78 34.472 312.108 34.976C311.455 35.48 311.044 36.2267 310.876 37.216H308.188C308.244 36.096 308.599 35.0973 309.252 34.22C309.924 33.3427 310.783 32.6893 311.828 32.26C312.631 31.9427 313.564 31.784 314.628 31.784C316.495 31.784 318.044 32.2507 319.276 33.184C320.527 34.1173 321.152 35.4707 321.152 37.244C321.152 39.26 320.228 40.6973 318.38 41.556C318.753 41.668 319.145 41.836 319.556 42.06C321.049 43.012 321.796 44.5147 321.796 46.568ZM332.929 31.784C335.15 31.784 336.858 32.4467 338.053 33.772C339.266 35.0973 339.873 36.852 339.873 39.036V45.084C339.873 47.3427 339.257 49.116 338.025 50.404C336.811 51.692 335.113 52.336 332.929 52.336C330.707 52.336 328.99 51.6733 327.777 50.348C326.582 49.0227 325.985 47.268 325.985 45.084V39.036C325.985 36.8147 326.601 35.0507 327.833 33.744C329.065 32.4373 330.763 31.784 332.929 31.784ZM332.929 49.872C334.329 49.872 335.383 49.424 336.093 48.528C336.821 47.6133 337.185 46.456 337.185 45.056V39.064C337.185 37.6267 336.821 36.4693 336.093 35.592C335.365 34.696 334.31 34.248 332.929 34.248C331.529 34.248 330.465 34.7053 329.737 35.62C329.027 36.516 328.673 37.664 328.673 39.064V45.056C328.673 46.4933 329.037 47.66 329.765 48.556C330.511 49.4333 331.566 49.872 332.929 49.872Z" fill="#F5F5F5"/>
<defs>
<linearGradient id="paint0_linear_58_1825" x1="-36.5" y1="246.5" x2="357" y2="77" gradientUnits="userSpaceOnUse">
<stop stop-color="#B715C5"/>
<stop offset="1" stop-color="#361D7E"/>
</linearGradient>
<clipPath id="clip0_58_1825">
<rect width="172" height="52" fill="white" transform="translate(171 192)"/>
</clipPath>
</defs>
</svg>
