<svg width="380" height="273" viewBox="0 0 380 273" fill="none" xmlns="http://www.w3.org/2000/svg">
<rect width="380" height="273" rx="12" fill="url(#paint0_linear_58_1847)"/>
<g clip-path="url(#clip0_58_1847)">
<path fill-rule="evenodd" clip-rule="evenodd" d="M262.136 199.511C262.103 199.542 262.073 203.626 262.069 208.586C262.061 217.522 262.059 217.599 261.896 216.922C261.405 214.881 260.375 213.101 258.876 211.701C256.41 209.399 252.78 208.297 248.168 208.45C241.633 208.668 237.525 211.073 235.81 215.686C234.87 218.214 234.734 221.847 235.476 224.622C235.949 226.391 236.746 227.816 237.932 229.014C239.083 230.177 240.053 230.808 241.763 231.507C243.587 232.254 245.578 232.594 248.493 232.656C252.205 232.736 254.51 232.327 256.872 231.168C259.074 230.088 260.702 228.328 261.347 226.33C261.672 225.323 261.954 225.421 258.723 225.422L255.91 225.423L255.66 225.917C254.483 228.243 251.388 229.572 247.878 229.259C244.741 228.979 242.205 227.288 241.189 224.801C240.86 223.994 240.651 223.09 240.651 222.468V222.004H251.37H262.089L262.06 227.001L262.031 231.998L264.704 231.998C266.174 231.998 267.397 231.967 267.422 231.928C267.447 231.89 267.493 231.303 267.523 230.625C267.604 228.822 267.543 228.897 268.321 229.636C269.804 231.042 271.898 232.039 274.373 232.516C275.549 232.743 278.022 232.829 279.235 232.686C283.58 232.173 286.928 230.073 288.758 226.711C288.99 226.284 289.274 225.698 289.389 225.409L289.597 224.882L289.663 225.68C289.979 229.516 292.61 231.884 297.454 232.694C297.873 232.764 298.831 232.805 299.975 232.803C302.112 232.8 303.499 232.613 305.104 232.115C307.008 231.524 308.242 230.825 309.528 229.612L310.393 228.795L310.448 230.315C310.477 231.151 310.526 231.871 310.555 231.916C310.587 231.965 311.624 231.998 313.133 231.998H315.658L315.598 231.635C315.566 231.435 315.507 227.793 315.467 223.542C315.394 215.567 315.405 215.826 315.049 214.445C315.013 214.304 315.006 214.208 315.033 214.231C315.117 214.303 324.911 231.769 324.911 231.846C324.911 231.886 323.88 233.773 322.621 236.038C321.361 238.304 320.304 240.224 320.271 240.306C320.214 240.445 320.399 240.454 323.258 240.454L326.306 240.453L333.058 227.879C336.771 220.964 340.527 213.968 341.405 212.334L343 209.362H340.073H337.145L332.563 218.084L327.981 226.806L323.385 218.084L318.789 209.362H315.593C313.836 209.362 312.398 209.387 312.398 209.418C312.398 209.449 312.687 209.997 313.041 210.635L313.684 211.797L313.018 211.19C311.554 209.854 309.846 209.125 307.106 208.667C306.125 208.503 305.632 208.475 303.666 208.472C302.238 208.469 301.047 208.51 300.515 208.58C296.12 209.159 293.354 210.659 292.013 213.193C291.764 213.664 291.423 214.789 291.423 215.142V215.341H294.304C297.005 215.341 297.184 215.332 297.184 215.19C297.184 215.106 297.32 214.77 297.487 214.442C298.052 213.33 299.192 212.541 300.83 212.127C301.35 211.996 301.776 211.969 303.261 211.974C304.824 211.979 305.155 212.004 305.776 212.166C306.936 212.47 307.921 212.969 308.558 213.576C309.528 214.502 309.877 215.368 309.877 216.845V217.714L305.129 217.758C300.152 217.805 299.257 217.861 297.184 218.255C293.969 218.867 291.563 220.213 290.506 221.992L290.208 222.494L290.204 220.605C290.202 218.985 290.173 218.593 290.004 217.856C289.411 215.281 288.24 213.219 286.47 211.64C284.786 210.137 282.794 209.205 280.193 208.703C279.568 208.583 278.978 208.553 277.335 208.556C275.446 208.56 275.164 208.581 274.13 208.789C271.402 209.336 269.208 210.441 268.007 211.872L267.657 212.289V205.871V199.454H264.927C263.425 199.454 262.169 199.479 262.136 199.511ZM250.418 212.05C253.002 212.448 255.033 213.876 255.901 215.902C256.162 216.512 256.405 217.578 256.405 218.114V218.502H248.573H240.741V218.199C240.741 217.589 241.03 216.564 241.417 215.804C242.827 213.029 246.589 211.46 250.418 212.05ZM277.65 212.187C281.061 212.708 283.578 215.09 284.307 218.483C284.562 219.668 284.561 221.438 284.306 222.625C283.635 225.753 281.547 228.002 278.487 228.896C277.756 229.11 277.574 229.128 276.119 229.13C274.434 229.132 274.015 229.066 272.793 228.604C271.871 228.256 271.194 227.837 270.422 227.139C269.599 226.392 269.142 225.791 268.645 224.798C266.708 220.931 267.773 215.898 271.015 213.585C271.971 212.903 273.025 212.466 274.286 212.228C275.037 212.087 276.85 212.064 277.65 212.187ZM309.877 222.249C309.877 224.362 309.278 225.819 307.852 227.172C306.663 228.3 305.301 228.925 303.388 229.219C302.275 229.39 300.299 229.388 299.332 229.215C298.314 229.033 297.228 228.541 296.599 227.976C295.109 226.639 294.987 224.273 296.342 222.987C297.717 221.683 300.65 221.198 307.379 221.163L309.877 221.15V222.249Z" fill="white"/>
</g>
<path d="M296.519 50.88C295.306 50.8427 294.223 50.7307 293.271 50.544C292.319 50.3387 291.451 50.0587 290.667 49.704V46.092C291.432 46.4653 292.356 46.8107 293.439 47.128C294.522 47.4267 295.548 47.604 296.519 47.66V43.432C295.436 43.0027 294.512 42.592 293.747 42.2C293 41.808 292.394 41.3973 291.927 40.968C291.479 40.52 291.152 40.0347 290.947 39.512C290.742 38.9707 290.639 38.3547 290.639 37.664C290.639 36.7307 290.882 35.928 291.367 35.256C291.871 34.5653 292.562 34.0147 293.439 33.604C294.335 33.1933 295.362 32.9413 296.519 32.848V30.748H298.395V32.792C299.44 32.8293 300.42 32.9507 301.335 33.156C302.268 33.3613 303.174 33.66 304.051 34.052L302.763 37.244C302.016 36.9267 301.26 36.684 300.495 36.516C299.748 36.348 299.048 36.236 298.395 36.18V40.212C299.403 40.5853 300.364 40.996 301.279 41.444C302.194 41.8733 302.931 42.424 303.491 43.096C304.07 43.768 304.359 44.6547 304.359 45.756C304.359 47.1187 303.864 48.2573 302.875 49.172C301.886 50.0867 300.392 50.6373 298.395 50.824V53.624H296.519V50.88ZM298.395 47.576C299.03 47.464 299.496 47.2773 299.795 47.016C300.094 46.736 300.243 46.3813 300.243 45.952C300.243 45.6907 300.168 45.4667 300.019 45.28C299.888 45.0747 299.683 44.888 299.403 44.72C299.142 44.5333 298.806 44.3467 298.395 44.16V47.576ZM296.519 36.236C296.146 36.292 295.828 36.3853 295.567 36.516C295.306 36.628 295.1 36.7867 294.951 36.992C294.82 37.1787 294.755 37.4027 294.755 37.664C294.755 37.9253 294.811 38.1587 294.923 38.364C295.054 38.5507 295.25 38.7373 295.511 38.924C295.772 39.092 296.108 39.2693 296.519 39.456V36.236ZM322.09 45.112C322.09 47.352 321.334 49.116 319.822 50.404C318.329 51.692 316.462 52.336 314.222 52.336C311.945 52.336 310.06 51.692 308.566 50.404C307.092 49.0973 306.354 47.3427 306.354 45.14C306.354 43.6467 306.625 42.3493 307.166 41.248C307.708 40.128 308.538 38.8493 309.658 37.412L313.802 32.12H318.954L313.27 39.344C314.073 38.84 314.978 38.588 315.986 38.588C317.89 38.588 319.384 39.204 320.466 40.436C321.549 41.668 322.09 43.2267 322.09 45.112ZM317.442 45.112C317.442 44.1413 317.144 43.376 316.546 42.816C315.968 42.2373 315.193 41.948 314.222 41.948C313.27 41.948 312.496 42.2467 311.898 42.844C311.301 43.4227 311.002 44.188 311.002 45.14C311.002 46.0733 311.301 46.8293 311.898 47.408C312.496 47.968 313.27 48.248 314.222 48.248C315.193 48.248 315.968 47.968 316.546 47.408C317.144 46.8293 317.442 46.064 317.442 45.112ZM332.759 31.756C335.13 31.756 336.996 32.4187 338.359 33.744C339.722 35.0507 340.403 36.8613 340.403 39.176V44.944C340.403 47.296 339.703 49.1253 338.303 50.432C336.922 51.72 335.074 52.364 332.759 52.364C330.388 52.364 328.522 51.7107 327.159 50.404C325.796 49.0787 325.115 47.2587 325.115 44.944V39.176C325.115 36.824 325.806 35.004 327.187 33.716C328.587 32.4093 330.444 31.756 332.759 31.756ZM330.519 47.24C331.023 47.856 331.77 48.164 332.759 48.164C333.748 48.164 334.495 47.856 334.999 47.24C335.503 46.624 335.755 45.812 335.755 44.804V39.316C335.755 38.2893 335.503 37.4773 334.999 36.88C334.495 36.264 333.748 35.956 332.759 35.956C331.77 35.956 331.023 36.264 330.519 36.88C330.015 37.496 329.763 38.308 329.763 39.316V44.804C329.763 45.812 330.015 46.624 330.519 47.24Z" fill="#F5F5F5"/>
<defs>
<linearGradient id="paint0_linear_58_1847" x1="-36.5" y1="246.5" x2="357" y2="77" gradientUnits="userSpaceOnUse">
<stop stop-color="#1571C5"/>
<stop offset="1" stop-color="#1D337E"/>
</linearGradient>
<clipPath id="clip0_58_1847">
<rect width="108" height="42" fill="white" transform="translate(235 199)"/>
</clipPath>
</defs>
</svg>
