<svg width="380" height="273" viewBox="0 0 380 273" fill="none" xmlns="http://www.w3.org/2000/svg">
<rect width="380" height="273" rx="12" fill="url(#paint0_linear_58_1842)"/>
<path d="M297.457 50.628C296.43 50.6093 295.431 50.5253 294.46 50.376C293.49 50.208 292.706 49.984 292.108 49.704V47.324C292.743 47.6227 293.555 47.884 294.544 48.108C295.534 48.332 296.504 48.4533 297.457 48.472V42.816C296.542 42.5547 295.739 42.2747 295.048 41.976C294.376 41.6587 293.826 41.304 293.396 40.912C292.967 40.52 292.64 40.072 292.416 39.568C292.211 39.0453 292.108 38.448 292.108 37.776C292.108 36.8613 292.323 36.0773 292.752 35.424C293.2 34.7707 293.826 34.2573 294.628 33.884C295.431 33.492 296.374 33.268 297.457 33.212V30.748H299.248V33.184C300.238 33.2027 301.134 33.3147 301.936 33.52C302.758 33.7067 303.505 33.94 304.177 34.22L303.421 36.292C302.823 36.0493 302.16 35.844 301.432 35.676C300.723 35.4893 299.995 35.368 299.248 35.312V40.94C300.48 41.2947 301.507 41.6773 302.328 42.088C303.15 42.48 303.766 42.9747 304.177 43.572C304.606 44.1507 304.821 44.9067 304.821 45.84C304.821 47.1467 304.335 48.2107 303.364 49.032C302.394 49.8347 301.022 50.3293 299.248 50.516V53.624H297.457V50.628ZM299.248 48.332C300.35 48.22 301.153 47.968 301.657 47.576C302.16 47.1653 302.412 46.6427 302.412 46.008C302.412 45.5413 302.319 45.1587 302.132 44.86C301.946 44.5427 301.619 44.272 301.153 44.048C300.705 43.824 300.07 43.6093 299.248 43.404V48.332ZM297.457 35.368C296.784 35.4053 296.234 35.5267 295.804 35.732C295.375 35.9187 295.048 36.1707 294.824 36.488C294.619 36.8053 294.516 37.1693 294.516 37.58C294.516 38.0653 294.6 38.4853 294.768 38.84C294.955 39.176 295.263 39.4653 295.692 39.708C296.122 39.932 296.71 40.1373 297.457 40.324V35.368ZM321.796 46.568C321.796 48.4907 321.105 49.9373 319.724 50.908C318.361 51.86 316.691 52.336 314.712 52.336C312.845 52.336 311.24 51.8507 309.896 50.88C308.552 49.8907 307.805 48.5093 307.656 46.736H310.372C310.577 47.7627 311.081 48.5467 311.884 49.088C312.687 49.6107 313.629 49.872 314.712 49.872C315.944 49.872 316.971 49.5827 317.792 49.004C318.632 48.4253 319.052 47.5573 319.052 46.4C319.052 45.2053 318.679 44.3373 317.932 43.796C317.204 43.236 316.224 42.956 314.992 42.956H311.492V40.492H315.076C316.121 40.492 316.943 40.2307 317.54 39.708C318.156 39.1667 318.464 38.3827 318.464 37.356C318.464 36.3107 318.1 35.5267 317.372 35.004C316.644 34.4813 315.739 34.22 314.656 34.22C313.629 34.22 312.78 34.472 312.108 34.976C311.455 35.48 311.044 36.2267 310.876 37.216H308.188C308.244 36.096 308.599 35.0973 309.252 34.22C309.924 33.3427 310.783 32.6893 311.828 32.26C312.631 31.9427 313.564 31.784 314.628 31.784C316.495 31.784 318.044 32.2507 319.276 33.184C320.527 34.1173 321.152 35.4707 321.152 37.244C321.152 39.26 320.228 40.6973 318.38 41.556C318.753 41.668 319.145 41.836 319.556 42.06C321.049 43.012 321.796 44.5147 321.796 46.568ZM332.929 31.784C335.15 31.784 336.858 32.4467 338.053 33.772C339.266 35.0973 339.873 36.852 339.873 39.036V45.084C339.873 47.3427 339.257 49.116 338.025 50.404C336.811 51.692 335.113 52.336 332.929 52.336C330.707 52.336 328.99 51.6733 327.777 50.348C326.582 49.0227 325.985 47.268 325.985 45.084V39.036C325.985 36.8147 326.601 35.0507 327.833 33.744C329.065 32.4373 330.763 31.784 332.929 31.784ZM332.929 49.872C334.329 49.872 335.383 49.424 336.093 48.528C336.821 47.6133 337.185 46.456 337.185 45.056V39.064C337.185 37.6267 336.821 36.4693 336.093 35.592C335.365 34.696 334.31 34.248 332.929 34.248C331.529 34.248 330.465 34.7053 329.737 35.62C329.027 36.516 328.673 37.664 328.673 39.064V45.056C328.673 46.4933 329.037 47.66 329.765 48.556C330.511 49.4333 331.566 49.872 332.929 49.872Z" fill="#F5F5F5"/>
<defs>
<linearGradient id="paint0_linear_58_1842" x1="-36.5" y1="246.5" x2="357" y2="77" gradientUnits="userSpaceOnUse">
<stop stop-color="#C1C515"/>
<stop offset="1" stop-color="#7E571D"/>
</linearGradient>
</defs>
</svg>
