<svg width="380" height="273" viewBox="0 0 380 273" fill="none" xmlns="http://www.w3.org/2000/svg">
<rect width="380" height="273" rx="12" fill="url(#paint0_linear_58_1819)"/>
<g clip-path="url(#clip0_58_1819)">
<path d="M237.002 242.436C233.456 242.294 230.555 241.31 228.287 239.483C227.854 239.134 226.823 238.087 226.477 237.646C225.557 236.473 224.931 235.332 224.514 234.066C223.231 230.168 223.891 225.053 226.404 219.44C228.555 214.634 231.874 209.868 237.665 203.266C238.518 202.295 241.058 199.454 241.075 199.454C241.081 199.454 240.942 199.697 240.768 199.993C239.262 202.55 237.974 205.562 237.272 208.17C236.145 212.354 236.281 215.944 237.671 218.729C238.629 220.647 240.273 222.308 242.121 223.227C245.356 224.834 250.093 224.967 255.878 223.616C256.276 223.522 276.012 218.21 299.736 211.811C323.459 205.412 342.872 200.18 342.875 200.185C342.882 200.19 287.759 224.105 259.144 236.512C254.612 238.476 253.4 238.972 251.27 239.731C245.824 241.67 240.946 242.595 237.002 242.436Z" fill="white"/>
</g>
<path d="M296.519 50.88C295.306 50.8427 294.223 50.7307 293.271 50.544C292.319 50.3387 291.451 50.0587 290.667 49.704V46.092C291.432 46.4653 292.356 46.8107 293.439 47.128C294.522 47.4267 295.548 47.604 296.519 47.66V43.432C295.436 43.0027 294.512 42.592 293.747 42.2C293 41.808 292.394 41.3973 291.927 40.968C291.479 40.52 291.152 40.0347 290.947 39.512C290.742 38.9707 290.639 38.3547 290.639 37.664C290.639 36.7307 290.882 35.928 291.367 35.256C291.871 34.5653 292.562 34.0147 293.439 33.604C294.335 33.1933 295.362 32.9413 296.519 32.848V30.748H298.395V32.792C299.44 32.8293 300.42 32.9507 301.335 33.156C302.268 33.3613 303.174 33.66 304.051 34.052L302.763 37.244C302.016 36.9267 301.26 36.684 300.495 36.516C299.748 36.348 299.048 36.236 298.395 36.18V40.212C299.403 40.5853 300.364 40.996 301.279 41.444C302.194 41.8733 302.931 42.424 303.491 43.096C304.07 43.768 304.359 44.6547 304.359 45.756C304.359 47.1187 303.864 48.2573 302.875 49.172C301.886 50.0867 300.392 50.6373 298.395 50.824V53.624H296.519V50.88ZM298.395 47.576C299.03 47.464 299.496 47.2773 299.795 47.016C300.094 46.736 300.243 46.3813 300.243 45.952C300.243 45.6907 300.168 45.4667 300.019 45.28C299.888 45.0747 299.683 44.888 299.403 44.72C299.142 44.5333 298.806 44.3467 298.395 44.16V47.576ZM296.519 36.236C296.146 36.292 295.828 36.3853 295.567 36.516C295.306 36.628 295.1 36.7867 294.951 36.992C294.82 37.1787 294.755 37.4027 294.755 37.664C294.755 37.9253 294.811 38.1587 294.923 38.364C295.054 38.5507 295.25 38.7373 295.511 38.924C295.772 39.092 296.108 39.2693 296.519 39.456V36.236ZM322.09 45.112C322.09 47.352 321.334 49.116 319.822 50.404C318.329 51.692 316.462 52.336 314.222 52.336C311.945 52.336 310.06 51.692 308.566 50.404C307.092 49.0973 306.354 47.3427 306.354 45.14C306.354 43.6467 306.625 42.3493 307.166 41.248C307.708 40.128 308.538 38.8493 309.658 37.412L313.802 32.12H318.954L313.27 39.344C314.073 38.84 314.978 38.588 315.986 38.588C317.89 38.588 319.384 39.204 320.466 40.436C321.549 41.668 322.09 43.2267 322.09 45.112ZM317.442 45.112C317.442 44.1413 317.144 43.376 316.546 42.816C315.968 42.2373 315.193 41.948 314.222 41.948C313.27 41.948 312.496 42.2467 311.898 42.844C311.301 43.4227 311.002 44.188 311.002 45.14C311.002 46.0733 311.301 46.8293 311.898 47.408C312.496 47.968 313.27 48.248 314.222 48.248C315.193 48.248 315.968 47.968 316.546 47.408C317.144 46.8293 317.442 46.064 317.442 45.112ZM332.759 31.756C335.13 31.756 336.996 32.4187 338.359 33.744C339.722 35.0507 340.403 36.8613 340.403 39.176V44.944C340.403 47.296 339.703 49.1253 338.303 50.432C336.922 51.72 335.074 52.364 332.759 52.364C330.388 52.364 328.522 51.7107 327.159 50.404C325.796 49.0787 325.115 47.2587 325.115 44.944V39.176C325.115 36.824 325.806 35.004 327.187 33.716C328.587 32.4093 330.444 31.756 332.759 31.756ZM330.519 47.24C331.023 47.856 331.77 48.164 332.759 48.164C333.748 48.164 334.495 47.856 334.999 47.24C335.503 46.624 335.755 45.812 335.755 44.804V39.316C335.755 38.2893 335.503 37.4773 334.999 36.88C334.495 36.264 333.748 35.956 332.759 35.956C331.77 35.956 331.023 36.264 330.519 36.88C330.015 37.496 329.763 38.308 329.763 39.316V44.804C329.763 45.812 330.015 46.624 330.519 47.24Z" fill="#F5F5F5"/>
<defs>
<linearGradient id="paint0_linear_58_1819" x1="-36.5" y1="246.5" x2="357" y2="77" gradientUnits="userSpaceOnUse">
<stop stop-color="#2E15C5"/>
<stop offset="1" stop-color="#481D7E"/>
</linearGradient>
<clipPath id="clip0_58_1819">
<rect width="120" height="44" fill="white" transform="translate(223 199)"/>
</clipPath>
</defs>
</svg>
