<svg width="380" height="273" viewBox="0 0 380 273" fill="none" xmlns="http://www.w3.org/2000/svg">
<rect width="380" height="273" rx="12" fill="url(#paint0_linear_58_1830)"/>
<g clip-path="url(#clip0_58_1830)">
<path fill-rule="evenodd" clip-rule="evenodd" d="M212.523 201.55C211.686 202.949 211.07 204.431 210.65 206.06C210.465 206.775 210.376 207.229 210.107 208.817C209.882 210.148 209.927 214.445 210.19 216.646C210.331 217.825 210.526 219.236 210.604 219.641C210.647 219.866 210.738 220.386 210.806 220.798C210.874 221.21 210.961 221.685 211 221.854C211.038 222.022 211.113 222.39 211.166 222.67C211.219 222.951 211.331 223.472 211.416 223.828C212.27 227.429 212.265 227.407 212.45 228.729C212.622 229.956 212.647 233.324 212.495 234.584C212.361 235.694 212.342 235.823 212.234 236.388C212.185 236.65 212.109 237.048 212.067 237.273C212.025 237.498 211.915 237.972 211.822 238.328C211.729 238.684 211.632 239.067 211.607 239.179C211.352 240.302 209.978 243.811 209.262 245.17C208.192 247.2 207.586 248.218 206.565 249.697C205.951 250.588 204.5 252.467 204.293 252.641C204.237 252.688 204.148 252.788 204.096 252.863C203.938 253.092 203.987 252.85 204.155 252.575C204.241 252.434 204.48 251.996 204.686 251.603C204.892 251.21 205.096 250.835 205.14 250.77C205.184 250.705 205.22 250.618 205.22 250.576C205.22 250.535 205.274 250.404 205.339 250.286C205.404 250.168 205.585 249.75 205.74 249.357C206.333 247.851 206.721 246.491 206.971 245.034C207.041 244.622 207.135 244.086 207.178 243.842C207.43 242.437 207.472 238.184 207.257 235.911C207.147 234.741 206.884 232.792 206.692 231.725C206.648 231.481 206.574 231.052 206.526 230.772C206.478 230.491 206.405 230.123 206.364 229.955C206.323 229.786 206.23 229.373 206.157 229.036C206.084 228.699 205.967 228.193 205.897 227.912C205.639 226.875 205.33 225.427 205.142 224.372C205.099 224.129 205.022 223.715 204.972 223.453C204.838 222.755 204.776 218.585 204.885 217.599C205.096 215.683 205.505 213.833 206.081 212.187C206.245 211.719 206.398 211.274 206.422 211.199C206.497 210.965 207.516 208.684 207.578 208.613C207.611 208.575 207.705 208.391 207.788 208.204C207.983 207.764 209.303 205.56 209.759 204.914C209.953 204.639 210.111 204.404 210.111 204.392C210.111 204.256 212.739 200.954 212.847 200.954C212.865 200.954 212.719 201.222 212.523 201.55Z" fill="white"/>
<path fill-rule="evenodd" clip-rule="evenodd" d="M298.127 218.732C295.106 219.149 292.296 221.828 291.591 224.963C291.328 226.131 291.374 228.392 291.682 229.435C292.091 230.822 292.941 232.199 294.02 233.226C297.149 236.199 301.686 236.12 304.787 233.039C308.059 229.788 308.06 224.19 304.789 220.972C302.93 219.142 300.668 218.382 298.127 218.732ZM313.379 234.558H315.774L315.758 231.712C315.75 230.146 315.798 228.792 315.866 228.701C315.934 228.611 316.523 228.516 317.174 228.49L318.358 228.443L318.676 228.98C318.851 229.275 319.723 230.65 320.614 232.037L322.233 234.558L323.64 234.605C324.551 234.635 325.048 234.591 325.048 234.48C325.048 234.385 324.093 232.883 322.926 231.142L320.805 227.977L321.417 227.665C322.687 227.016 323.422 225.684 323.543 223.811C323.699 221.414 322.75 219.814 320.697 219.014C319.848 218.683 319.391 218.635 316.519 218.573L313.294 218.504L313.379 234.558ZM226.146 218.852C224.119 219.467 222.737 221.497 222.927 223.582C223.102 225.511 224.14 226.738 226.776 228.133C228.841 229.227 229.574 229.955 229.574 230.914C229.574 232.918 227.349 233.723 224.879 232.612C224.316 232.359 223.827 232.181 223.792 232.216C223.566 232.447 222.899 234.231 223.001 234.331C223.415 234.732 225.055 235.173 226.409 235.249C228.826 235.383 230.363 234.674 231.283 233C231.704 232.233 231.768 231.948 231.772 230.817C231.776 229.785 231.7 229.36 231.406 228.765C230.955 227.853 229.914 226.79 228.921 226.225C226.765 225 225.794 224.326 225.573 223.9C225.283 223.342 225.259 222.45 225.519 221.882C225.732 221.416 226.847 220.815 227.498 220.815C228.078 220.815 229.387 221.267 229.942 221.659C230.288 221.904 230.41 221.927 230.471 221.762C230.514 221.643 230.691 221.132 230.865 220.625L231.179 219.703L230.336 219.373C228.653 218.715 227.198 218.534 226.146 218.852ZM238.713 234.964H248.179V232.85H241.161V227.491L246.101 227.402L246.09 226.548C246.084 226.078 246.074 225.621 246.069 225.531C246.062 225.431 245.126 225.369 243.61 225.369H241.161V221.129L248.098 221.166L248.194 219.026H238.713V234.964ZM256.013 234.964H258.461V228.992L260.297 228.902C261.307 228.852 262.515 228.694 262.983 228.55C264.139 228.193 265.132 227.398 265.633 226.429C266.007 225.705 266.05 225.433 266.05 223.815C266.05 222.088 266.028 221.974 265.554 221.209C264.976 220.274 263.748 219.462 262.516 219.198C262.072 219.103 260.427 219.026 258.861 219.026H256.013V234.964ZM272.496 234.964H274.781V227.483H282.452V234.964H284.9V219.026H282.452V225.369H274.781V219.026H272.496V234.964ZM334.734 220.612C334.451 221.484 333.323 224.974 332.228 228.369C331.132 231.763 330.199 234.635 330.154 234.752C330.091 234.916 330.37 234.964 331.372 234.964H332.672L333.746 231.216L339.459 231.305L340.48 234.883L341.74 234.93C342.433 234.957 343 234.915 343 234.837C343 234.76 342.894 234.373 342.764 233.977C342.635 233.581 341.858 231.171 341.039 228.621C340.22 226.072 339.182 222.87 338.732 221.506L337.914 219.026H335.248L334.734 220.612ZM319.904 221.143C320.933 221.654 321.369 222.362 321.352 223.496C321.323 225.515 320.127 226.355 317.214 226.403L315.827 226.426L315.737 220.615L317.414 220.677C318.79 220.729 319.237 220.812 319.904 221.143ZM301.173 221.329C302.426 221.795 303.809 223.179 304.345 224.502C304.659 225.278 304.729 225.746 304.729 227.08C304.729 228.586 304.689 228.79 304.205 229.771C302.401 233.422 298.295 234.21 295.546 231.432C293.52 229.384 293.216 225.825 294.864 223.433C296.355 221.267 298.808 220.449 301.173 221.329ZM262.466 221.525C263.595 222.049 263.922 222.582 263.926 223.905C263.931 225.886 262.9 226.673 260.134 226.799L258.461 226.875V221.14L260.052 221.142C261.377 221.143 261.781 221.207 262.466 221.525ZM337.702 225.464C338.278 227.414 338.724 229.034 338.693 229.064C338.663 229.094 337.69 229.099 336.53 229.074L334.423 229.028L335.484 225.418C336.067 223.433 336.569 221.833 336.6 221.864C336.63 221.894 337.126 223.514 337.702 225.464Z" fill="white"/>
</g>
<path d="M296.519 50.88C295.306 50.8427 294.223 50.7307 293.271 50.544C292.319 50.3387 291.451 50.0587 290.667 49.704V46.092C291.432 46.4653 292.356 46.8107 293.439 47.128C294.522 47.4267 295.548 47.604 296.519 47.66V43.432C295.436 43.0027 294.512 42.592 293.747 42.2C293 41.808 292.394 41.3973 291.927 40.968C291.479 40.52 291.152 40.0347 290.947 39.512C290.742 38.9707 290.639 38.3547 290.639 37.664C290.639 36.7307 290.882 35.928 291.367 35.256C291.871 34.5653 292.562 34.0147 293.439 33.604C294.335 33.1933 295.362 32.9413 296.519 32.848V30.748H298.395V32.792C299.44 32.8293 300.42 32.9507 301.335 33.156C302.268 33.3613 303.174 33.66 304.051 34.052L302.763 37.244C302.016 36.9267 301.26 36.684 300.495 36.516C299.748 36.348 299.048 36.236 298.395 36.18V40.212C299.403 40.5853 300.364 40.996 301.279 41.444C302.194 41.8733 302.931 42.424 303.491 43.096C304.07 43.768 304.359 44.6547 304.359 45.756C304.359 47.1187 303.864 48.2573 302.875 49.172C301.886 50.0867 300.392 50.6373 298.395 50.824V53.624H296.519V50.88ZM298.395 47.576C299.03 47.464 299.496 47.2773 299.795 47.016C300.094 46.736 300.243 46.3813 300.243 45.952C300.243 45.6907 300.168 45.4667 300.019 45.28C299.888 45.0747 299.683 44.888 299.403 44.72C299.142 44.5333 298.806 44.3467 298.395 44.16V47.576ZM296.519 36.236C296.146 36.292 295.828 36.3853 295.567 36.516C295.306 36.628 295.1 36.7867 294.951 36.992C294.82 37.1787 294.755 37.4027 294.755 37.664C294.755 37.9253 294.811 38.1587 294.923 38.364C295.054 38.5507 295.25 38.7373 295.511 38.924C295.772 39.092 296.108 39.2693 296.519 39.456V36.236ZM322.09 45.112C322.09 47.352 321.334 49.116 319.822 50.404C318.329 51.692 316.462 52.336 314.222 52.336C311.945 52.336 310.06 51.692 308.566 50.404C307.092 49.0973 306.354 47.3427 306.354 45.14C306.354 43.6467 306.625 42.3493 307.166 41.248C307.708 40.128 308.538 38.8493 309.658 37.412L313.802 32.12H318.954L313.27 39.344C314.073 38.84 314.978 38.588 315.986 38.588C317.89 38.588 319.384 39.204 320.466 40.436C321.549 41.668 322.09 43.2267 322.09 45.112ZM317.442 45.112C317.442 44.1413 317.144 43.376 316.546 42.816C315.968 42.2373 315.193 41.948 314.222 41.948C313.27 41.948 312.496 42.2467 311.898 42.844C311.301 43.4227 311.002 44.188 311.002 45.14C311.002 46.0733 311.301 46.8293 311.898 47.408C312.496 47.968 313.27 48.248 314.222 48.248C315.193 48.248 315.968 47.968 316.546 47.408C317.144 46.8293 317.442 46.064 317.442 45.112ZM332.759 31.756C335.13 31.756 336.996 32.4187 338.359 33.744C339.722 35.0507 340.403 36.8613 340.403 39.176V44.944C340.403 47.296 339.703 49.1253 338.303 50.432C336.922 51.72 335.074 52.364 332.759 52.364C330.388 52.364 328.522 51.7107 327.159 50.404C325.796 49.0787 325.115 47.2587 325.115 44.944V39.176C325.115 36.824 325.806 35.004 327.187 33.716C328.587 32.4093 330.444 31.756 332.759 31.756ZM330.519 47.24C331.023 47.856 331.77 48.164 332.759 48.164C333.748 48.164 334.495 47.856 334.999 47.24C335.503 46.624 335.755 45.812 335.755 44.804V39.316C335.755 38.2893 335.503 37.4773 334.999 36.88C334.495 36.264 333.748 35.956 332.759 35.956C331.77 35.956 331.023 36.264 330.519 36.88C330.015 37.496 329.763 38.308 329.763 39.316V44.804C329.763 45.812 330.015 46.624 330.519 47.24Z" fill="#F5F5F5"/>
<defs>
<linearGradient id="paint0_linear_58_1830" x1="-36.5" y1="246.5" x2="357" y2="77" gradientUnits="userSpaceOnUse">
<stop stop-color="#15C527"/>
<stop offset="1" stop-color="#1D7E5B"/>
</linearGradient>
<clipPath id="clip0_58_1830">
<rect width="139" height="53" fill="white" transform="translate(204 200)"/>
</clipPath>
</defs>
</svg>
