<svg width="380" height="273" viewBox="0 0 380 273" fill="none" xmlns="http://www.w3.org/2000/svg">
<rect width="380" height="273" rx="12" fill="url(#paint0_linear_58_1807)"/>
<path d="M297.457 50.628C296.43 50.6093 295.431 50.5253 294.46 50.376C293.49 50.208 292.706 49.984 292.108 49.704V47.324C292.743 47.6227 293.555 47.884 294.544 48.108C295.534 48.332 296.504 48.4533 297.457 48.472V42.816C296.542 42.5547 295.739 42.2747 295.048 41.976C294.376 41.6587 293.826 41.304 293.396 40.912C292.967 40.52 292.64 40.072 292.416 39.568C292.211 39.0453 292.108 38.448 292.108 37.776C292.108 36.8613 292.323 36.0773 292.752 35.424C293.2 34.7707 293.826 34.2573 294.628 33.884C295.431 33.492 296.374 33.268 297.457 33.212V30.748H299.248V33.184C300.238 33.2027 301.134 33.3147 301.936 33.52C302.758 33.7067 303.505 33.94 304.177 34.22L303.421 36.292C302.823 36.0493 302.16 35.844 301.432 35.676C300.723 35.4893 299.995 35.368 299.248 35.312V40.94C300.48 41.2947 301.507 41.6773 302.328 42.088C303.15 42.48 303.766 42.9747 304.177 43.572C304.606 44.1507 304.821 44.9067 304.821 45.84C304.821 47.1467 304.335 48.2107 303.364 49.032C302.394 49.8347 301.022 50.3293 299.248 50.516V53.624H297.457V50.628ZM299.248 48.332C300.35 48.22 301.153 47.968 301.657 47.576C302.16 47.1653 302.412 46.6427 302.412 46.008C302.412 45.5413 302.319 45.1587 302.132 44.86C301.946 44.5427 301.619 44.272 301.153 44.048C300.705 43.824 300.07 43.6093 299.248 43.404V48.332ZM297.457 35.368C296.784 35.4053 296.234 35.5267 295.804 35.732C295.375 35.9187 295.048 36.1707 294.824 36.488C294.619 36.8053 294.516 37.1693 294.516 37.58C294.516 38.0653 294.6 38.4853 294.768 38.84C294.955 39.176 295.263 39.4653 295.692 39.708C296.122 39.932 296.71 40.1373 297.457 40.324V35.368ZM321.796 46.568C321.796 48.4907 321.105 49.9373 319.724 50.908C318.361 51.86 316.691 52.336 314.712 52.336C312.845 52.336 311.24 51.8507 309.896 50.88C308.552 49.8907 307.805 48.5093 307.656 46.736H310.372C310.577 47.7627 311.081 48.5467 311.884 49.088C312.687 49.6107 313.629 49.872 314.712 49.872C315.944 49.872 316.971 49.5827 317.792 49.004C318.632 48.4253 319.052 47.5573 319.052 46.4C319.052 45.2053 318.679 44.3373 317.932 43.796C317.204 43.236 316.224 42.956 314.992 42.956H311.492V40.492H315.076C316.121 40.492 316.943 40.2307 317.54 39.708C318.156 39.1667 318.464 38.3827 318.464 37.356C318.464 36.3107 318.1 35.5267 317.372 35.004C316.644 34.4813 315.739 34.22 314.656 34.22C313.629 34.22 312.78 34.472 312.108 34.976C311.455 35.48 311.044 36.2267 310.876 37.216H308.188C308.244 36.096 308.599 35.0973 309.252 34.22C309.924 33.3427 310.783 32.6893 311.828 32.26C312.631 31.9427 313.564 31.784 314.628 31.784C316.495 31.784 318.044 32.2507 319.276 33.184C320.527 34.1173 321.152 35.4707 321.152 37.244C321.152 39.26 320.228 40.6973 318.38 41.556C318.753 41.668 319.145 41.836 319.556 42.06C321.049 43.012 321.796 44.5147 321.796 46.568ZM332.929 31.784C335.15 31.784 336.858 32.4467 338.053 33.772C339.266 35.0973 339.873 36.852 339.873 39.036V45.084C339.873 47.3427 339.257 49.116 338.025 50.404C336.811 51.692 335.113 52.336 332.929 52.336C330.707 52.336 328.99 51.6733 327.777 50.348C326.582 49.0227 325.985 47.268 325.985 45.084V39.036C325.985 36.8147 326.601 35.0507 327.833 33.744C329.065 32.4373 330.763 31.784 332.929 31.784ZM332.929 49.872C334.329 49.872 335.383 49.424 336.093 48.528C336.821 47.6133 337.185 46.456 337.185 45.056V39.064C337.185 37.6267 336.821 36.4693 336.093 35.592C335.365 34.696 334.31 34.248 332.929 34.248C331.529 34.248 330.465 34.7053 329.737 35.62C329.027 36.516 328.673 37.664 328.673 39.064V45.056C328.673 46.4933 329.037 47.66 329.765 48.556C330.511 49.4333 331.566 49.872 332.929 49.872Z" fill="#F5F5F5"/>
<g clip-path="url(#clip0_58_1807)">
<path fill-rule="evenodd" clip-rule="evenodd" d="M171.024 182.326C178.281 183.631 184.346 186.96 189.46 192.445C200.935 204.75 200.935 224.125 189.46 236.43C178.397 248.294 161 250.539 147.197 241.884C141.636 238.397 136.321 231.937 134.275 226.179C133.865 225.024 133.607 224.001 133.703 223.906C133.799 223.811 136.503 224.813 139.712 226.132C145.064 228.334 145.626 228.688 146.507 230.422C147.802 232.972 148.74 233.96 150.906 235.057C152.929 236.083 156.397 236.267 158.538 235.464C161.411 234.386 164.573 230.144 164.602 227.329C164.617 225.891 175.264 218.358 177.291 218.35C179.468 218.343 183.434 216.245 185.432 214.044C190.919 208.001 188.949 198.365 181.5 194.817C178.35 193.317 173.564 193.274 170.752 194.721C166.835 196.737 163.662 201.06 163.637 204.416C163.629 205.465 162.453 207.595 159.649 211.64C156.386 216.345 155.452 217.376 154.454 217.376C153.784 217.376 152.419 217.714 151.42 218.129C149.606 218.882 149.592 218.878 140.835 215.313L132.066 211.744L132.344 210.03C134.636 195.922 144.931 185.111 158.694 182.359C162.895 181.52 166.486 181.51 171.024 182.326ZM179.922 198.915C182.349 200.189 184.342 203.312 184.342 205.84C184.342 208.07 182.387 211.56 180.396 212.885C178.951 213.846 178.184 214.004 175.689 213.851C170.806 213.553 167.983 210.634 167.983 205.884C167.983 199.636 174.287 195.956 179.922 198.915ZM172.847 200.658C168.026 203.814 169.079 210.739 174.564 211.947C181.448 213.463 185.262 204.337 179.262 200.706C177.276 199.503 174.641 199.483 172.847 200.658ZM229.147 202.223C230.487 202.509 231.98 203.03 232.464 203.382C233.244 203.948 233.271 204.2 232.701 205.567C231.85 207.607 231.613 207.703 229.54 206.843C227.394 205.953 223.773 205.89 222.73 206.724C220.299 208.669 221.645 210.496 226.833 212.289C229.316 213.148 231.514 214.281 232.519 215.222C233.949 216.561 234.158 217.067 234.158 219.197C234.158 222.099 232.802 224.407 230.21 225.919C227.453 227.527 219.411 227.157 216.498 225.288C215.976 224.954 216.007 224.497 216.66 222.875L217.466 220.875L219.462 221.574C220.56 221.958 222.689 222.273 224.193 222.273C227.259 222.273 228.732 221.378 228.732 219.513C228.732 218.293 226.841 217.093 223.06 215.913C218.509 214.494 216.401 212.244 216.401 208.806C216.401 203.357 221.677 200.633 229.147 202.223ZM258.326 204.398V206.602H254.627H250.927V216.641V226.68H248.461H245.995V216.662V206.643L242.173 206.5L238.35 206.357L238.199 204.276L238.047 202.194H248.186H258.326V204.398ZM281.014 204.398V206.602H275.342H269.67V209.295V211.989H274.602H279.535V214.192V216.396H274.602H269.67V219.335V222.273H275.342H281.014V224.476V226.68H272.876H264.738V214.437V202.194H272.876H281.014V204.398ZM305.018 213.948C307.514 220.277 309.57 225.732 309.589 226.068C309.611 226.485 308.785 226.68 306.996 226.68H304.369L303.643 224.354L302.916 222.028L297.929 221.889L292.942 221.75L292.117 224.215L291.293 226.68H288.632H285.971L287.39 222.885C291.669 211.435 294.911 202.941 295.143 202.569C295.288 202.336 296.548 202.212 297.943 202.293L300.48 202.439L305.018 213.948ZM324.476 210.987C326.747 215.823 328.753 219.625 328.933 219.435C329.114 219.245 330.985 215.288 333.092 210.642L336.924 202.194H339.302H341.681V214.437V226.68H339.474H337.268L337.132 219.212L336.996 211.744L333.445 218.967C330.224 225.523 329.776 226.19 328.61 226.19C327.443 226.19 327.011 225.545 323.937 219.212L320.55 212.234L320.512 219.457L320.473 226.68H318.006H315.54V214.437V202.194H317.943H320.346L324.476 210.987ZM296.092 212.601C295.307 214.823 294.565 216.917 294.445 217.253C294.283 217.706 295.15 217.865 297.784 217.865C300.418 217.865 301.285 217.706 301.123 217.253C301.003 216.917 300.261 214.823 299.476 212.601C298.691 210.379 297.929 208.561 297.784 208.561C297.639 208.561 296.877 210.379 296.092 212.601ZM158.166 220.682C163.022 223.141 163.329 229.383 158.744 232.425C156.52 233.9 153.467 233.903 151.283 232.434C148.583 230.618 148.88 229.95 151.867 231.119C155.225 232.432 157.735 231.869 159.209 229.47C161.189 226.245 159.97 223.269 155.947 221.502C154.473 220.855 153.268 220.214 153.268 220.075C153.268 219.482 156.615 219.897 158.166 220.682Z" fill="white"/>
</g>
<defs>
<linearGradient id="paint0_linear_58_1807" x1="-36.5" y1="246.5" x2="357" y2="77" gradientUnits="userSpaceOnUse">
<stop stop-color="#15A5C5"/>
<stop offset="1" stop-color="#1D7E5B"/>
</linearGradient>
<clipPath id="clip0_58_1807">
<rect width="174.4" height="67.0769" fill="white" transform="translate(168 180.923)"/>
</clipPath>
</defs>
</svg>
