<svg width="380" height="273" viewBox="0 0 380 273" fill="none" xmlns="http://www.w3.org/2000/svg">
<rect width="380" height="273" rx="12" fill="url(#paint0_linear_58_1836)"/>
<g clip-path="url(#clip0_58_1836)">
<path fill-rule="evenodd" clip-rule="evenodd" d="M258.184 194.252C252.607 196.219 249 201.243 249 207.047C249 211.962 248.92 211.895 254.73 211.895H259.805V207.529H256.563C253.36 207.529 253.322 207.511 253.322 205.974C253.322 202.638 258.598 197.753 262.236 197.723C268.187 197.673 273.568 204.504 271.743 209.792C271.417 210.738 271.149 211.598 271.149 211.703C271.149 211.809 272.216 211.895 273.519 211.895H275.889L276.241 209.522C276.951 204.742 274.782 199.314 270.999 196.399C267.16 193.442 262.632 192.683 258.184 194.252ZM317.34 208.723C317.172 209.417 317.103 215.387 317.186 221.989L317.339 233.994L320.87 234.337L320.58 207.802L319.114 207.631C317.958 207.497 317.582 207.728 317.34 208.723ZM323.912 207.893C323.714 208.093 323.552 214.109 323.552 221.262V234.267H326.793V207.529H325.533C324.839 207.529 324.11 207.693 323.912 207.893ZM249.831 215.134C249.688 215.368 251.514 222.531 253.89 231.052C258.606 247.968 258.849 248.454 262.566 248.454C265.258 248.454 266.485 247.221 267.534 243.461C275.08 216.432 275.379 215.219 274.526 215.123C274.303 215.098 273.582 215.017 272.924 214.943C272.266 214.869 271.509 214.95 271.243 215.125C270.978 215.299 269.019 221.934 266.891 229.869C264.762 237.803 262.901 244.417 262.754 244.565C262.108 245.218 261.379 243.002 257.928 229.902C255.912 222.249 254.053 215.756 253.796 215.473C253.208 214.824 250.179 214.566 249.831 215.134ZM279.118 214.999C278.544 215.151 278.173 215.771 278.173 216.576C278.173 217.888 278.218 217.9 281.883 217.556C285.208 217.244 285.714 217.329 286.745 218.371C287.378 219.011 287.894 220.209 287.892 221.035C287.887 222.49 287.79 222.54 284.616 222.675C278.815 222.925 276.782 224.813 277.231 229.537C277.645 233.889 280.99 235.707 285.618 234.096C286.871 233.66 287.897 233.52 287.897 233.785C287.897 234.05 288.626 234.267 289.517 234.267H291.138V226.653C291.138 218.311 290.724 216.637 288.359 215.401C286.952 214.666 281.309 214.421 279.118 214.999ZM293.659 214.987C293.461 215.187 293.299 219.622 293.299 224.843V234.336L296.81 233.994L296.907 226.411C296.976 221.001 297.198 218.707 297.682 218.404C299.252 217.424 302.045 217.293 303.323 218.139C304.566 218.962 304.619 219.267 304.764 226.494L304.914 233.994L308.425 234.336L308.422 227.617C308.419 219.882 307.872 217.304 305.903 215.739C304.305 214.47 300.67 214.238 298.442 215.263C297.378 215.753 296.902 215.753 296.418 215.263C295.723 214.562 294.227 214.412 293.659 214.987ZM311.126 234.267H314.393L314.098 214.896L311.126 214.551V234.267ZM330.98 214.999C330.406 215.151 330.035 215.771 330.035 216.576C330.035 217.888 330.08 217.9 333.745 217.556C337.07 217.244 337.576 217.329 338.607 218.371C339.241 219.011 339.759 220.11 339.759 220.815C339.759 221.995 339.437 222.141 335.657 222.677C330.277 223.439 328.954 224.591 328.954 228.511C328.954 233.509 331.983 235.597 337.055 234.095C338.542 233.655 339.759 233.514 339.759 233.781C339.759 234.048 340.488 234.267 341.379 234.267H343V226.846C343 218.317 342.38 216.174 339.634 215.207C338.005 214.633 332.836 214.509 330.98 214.999ZM287.897 227.7C287.897 230.782 287.127 231.519 283.774 231.646C281.413 231.736 280.209 230.419 280.445 228.004C280.639 226.017 282.366 225.01 285.601 224.999L287.897 224.99V227.7ZM339.759 227.7C339.759 230.761 338.985 231.519 335.737 231.642C333.306 231.735 332.195 230.749 332.195 228.501C332.195 226.122 333.8 224.99 337.178 224.99H339.759V227.7Z" fill="white"/>
<path d="M314.098 207.869L314.245 212.611L311.127 212.438L311.126 207.524L314.098 207.869Z" fill="white"/>
</g>
<path d="M296.519 50.88C295.306 50.8427 294.223 50.7307 293.271 50.544C292.319 50.3387 291.451 50.0587 290.667 49.704V46.092C291.432 46.4653 292.356 46.8107 293.439 47.128C294.522 47.4267 295.548 47.604 296.519 47.66V43.432C295.436 43.0027 294.512 42.592 293.747 42.2C293 41.808 292.394 41.3973 291.927 40.968C291.479 40.52 291.152 40.0347 290.947 39.512C290.742 38.9707 290.639 38.3547 290.639 37.664C290.639 36.7307 290.882 35.928 291.367 35.256C291.871 34.5653 292.562 34.0147 293.439 33.604C294.335 33.1933 295.362 32.9413 296.519 32.848V30.748H298.395V32.792C299.44 32.8293 300.42 32.9507 301.335 33.156C302.268 33.3613 303.174 33.66 304.051 34.052L302.763 37.244C302.016 36.9267 301.26 36.684 300.495 36.516C299.748 36.348 299.048 36.236 298.395 36.18V40.212C299.403 40.5853 300.364 40.996 301.279 41.444C302.194 41.8733 302.931 42.424 303.491 43.096C304.07 43.768 304.359 44.6547 304.359 45.756C304.359 47.1187 303.864 48.2573 302.875 49.172C301.886 50.0867 300.392 50.6373 298.395 50.824V53.624H296.519V50.88ZM298.395 47.576C299.03 47.464 299.496 47.2773 299.795 47.016C300.094 46.736 300.243 46.3813 300.243 45.952C300.243 45.6907 300.168 45.4667 300.019 45.28C299.888 45.0747 299.683 44.888 299.403 44.72C299.142 44.5333 298.806 44.3467 298.395 44.16V47.576ZM296.519 36.236C296.146 36.292 295.828 36.3853 295.567 36.516C295.306 36.628 295.1 36.7867 294.951 36.992C294.82 37.1787 294.755 37.4027 294.755 37.664C294.755 37.9253 294.811 38.1587 294.923 38.364C295.054 38.5507 295.25 38.7373 295.511 38.924C295.772 39.092 296.108 39.2693 296.519 39.456V36.236ZM322.09 45.112C322.09 47.352 321.334 49.116 319.822 50.404C318.329 51.692 316.462 52.336 314.222 52.336C311.945 52.336 310.06 51.692 308.566 50.404C307.092 49.0973 306.354 47.3427 306.354 45.14C306.354 43.6467 306.625 42.3493 307.166 41.248C307.708 40.128 308.538 38.8493 309.658 37.412L313.802 32.12H318.954L313.27 39.344C314.073 38.84 314.978 38.588 315.986 38.588C317.89 38.588 319.384 39.204 320.466 40.436C321.549 41.668 322.09 43.2267 322.09 45.112ZM317.442 45.112C317.442 44.1413 317.144 43.376 316.546 42.816C315.968 42.2373 315.193 41.948 314.222 41.948C313.27 41.948 312.496 42.2467 311.898 42.844C311.301 43.4227 311.002 44.188 311.002 45.14C311.002 46.0733 311.301 46.8293 311.898 47.408C312.496 47.968 313.27 48.248 314.222 48.248C315.193 48.248 315.968 47.968 316.546 47.408C317.144 46.8293 317.442 46.064 317.442 45.112ZM332.759 31.756C335.13 31.756 336.996 32.4187 338.359 33.744C339.722 35.0507 340.403 36.8613 340.403 39.176V44.944C340.403 47.296 339.703 49.1253 338.303 50.432C336.922 51.72 335.074 52.364 332.759 52.364C330.388 52.364 328.522 51.7107 327.159 50.404C325.796 49.0787 325.115 47.2587 325.115 44.944V39.176C325.115 36.824 325.806 35.004 327.187 33.716C328.587 32.4093 330.444 31.756 332.759 31.756ZM330.519 47.24C331.023 47.856 331.77 48.164 332.759 48.164C333.748 48.164 334.495 47.856 334.999 47.24C335.503 46.624 335.755 45.812 335.755 44.804V39.316C335.755 38.2893 335.503 37.4773 334.999 36.88C334.495 36.264 333.748 35.956 332.759 35.956C331.77 35.956 331.023 36.264 330.519 36.88C330.015 37.496 329.763 38.308 329.763 39.316V44.804C329.763 45.812 330.015 46.624 330.519 47.24Z" fill="#F5F5F5"/>
<defs>
<linearGradient id="paint0_linear_58_1836" x1="-36.5" y1="246.5" x2="357" y2="77" gradientUnits="userSpaceOnUse">
<stop stop-color="#C5157F"/>
<stop offset="1" stop-color="#7E1D40"/>
</linearGradient>
<clipPath id="clip0_58_1836">
<rect width="94" height="56" fill="white" transform="translate(249 193)"/>
</clipPath>
</defs>
</svg>
