<svg width="380" height="273" viewBox="0 0 380 273" fill="none" xmlns="http://www.w3.org/2000/svg">
<rect width="380" height="273" rx="12" fill="url(#paint0_linear_58_1800)"/>
<path d="M296.519 50.88C295.306 50.8427 294.223 50.7307 293.271 50.544C292.319 50.3387 291.451 50.0587 290.667 49.704V46.092C291.432 46.4653 292.356 46.8107 293.439 47.128C294.522 47.4267 295.548 47.604 296.519 47.66V43.432C295.436 43.0027 294.512 42.592 293.747 42.2C293 41.808 292.394 41.3973 291.927 40.968C291.479 40.52 291.152 40.0347 290.947 39.512C290.742 38.9707 290.639 38.3547 290.639 37.664C290.639 36.7307 290.882 35.928 291.367 35.256C291.871 34.5653 292.562 34.0147 293.439 33.604C294.335 33.1933 295.362 32.9413 296.519 32.848V30.748H298.395V32.792C299.44 32.8293 300.42 32.9507 301.335 33.156C302.268 33.3613 303.174 33.66 304.051 34.052L302.763 37.244C302.016 36.9267 301.26 36.684 300.495 36.516C299.748 36.348 299.048 36.236 298.395 36.18V40.212C299.403 40.5853 300.364 40.996 301.279 41.444C302.194 41.8733 302.931 42.424 303.491 43.096C304.07 43.768 304.359 44.6547 304.359 45.756C304.359 47.1187 303.864 48.2573 302.875 49.172C301.886 50.0867 300.392 50.6373 298.395 50.824V53.624H296.519V50.88ZM298.395 47.576C299.03 47.464 299.496 47.2773 299.795 47.016C300.094 46.736 300.243 46.3813 300.243 45.952C300.243 45.6907 300.168 45.4667 300.019 45.28C299.888 45.0747 299.683 44.888 299.403 44.72C299.142 44.5333 298.806 44.3467 298.395 44.16V47.576ZM296.519 36.236C296.146 36.292 295.828 36.3853 295.567 36.516C295.306 36.628 295.1 36.7867 294.951 36.992C294.82 37.1787 294.755 37.4027 294.755 37.664C294.755 37.9253 294.811 38.1587 294.923 38.364C295.054 38.5507 295.25 38.7373 295.511 38.924C295.772 39.092 296.108 39.2693 296.519 39.456V36.236ZM322.09 45.112C322.09 47.352 321.334 49.116 319.822 50.404C318.329 51.692 316.462 52.336 314.222 52.336C311.945 52.336 310.06 51.692 308.566 50.404C307.092 49.0973 306.354 47.3427 306.354 45.14C306.354 43.6467 306.625 42.3493 307.166 41.248C307.708 40.128 308.538 38.8493 309.658 37.412L313.802 32.12H318.954L313.27 39.344C314.073 38.84 314.978 38.588 315.986 38.588C317.89 38.588 319.384 39.204 320.466 40.436C321.549 41.668 322.09 43.2267 322.09 45.112ZM317.442 45.112C317.442 44.1413 317.144 43.376 316.546 42.816C315.968 42.2373 315.193 41.948 314.222 41.948C313.27 41.948 312.496 42.2467 311.898 42.844C311.301 43.4227 311.002 44.188 311.002 45.14C311.002 46.0733 311.301 46.8293 311.898 47.408C312.496 47.968 313.27 48.248 314.222 48.248C315.193 48.248 315.968 47.968 316.546 47.408C317.144 46.8293 317.442 46.064 317.442 45.112ZM332.759 31.756C335.13 31.756 336.996 32.4187 338.359 33.744C339.722 35.0507 340.403 36.8613 340.403 39.176V44.944C340.403 47.296 339.703 49.1253 338.303 50.432C336.922 51.72 335.074 52.364 332.759 52.364C330.388 52.364 328.522 51.7107 327.159 50.404C325.796 49.0787 325.115 47.2587 325.115 44.944V39.176C325.115 36.824 325.806 35.004 327.187 33.716C328.587 32.4093 330.444 31.756 332.759 31.756ZM330.519 47.24C331.023 47.856 331.77 48.164 332.759 48.164C333.748 48.164 334.495 47.856 334.999 47.24C335.503 46.624 335.755 45.812 335.755 44.804V39.316C335.755 38.2893 335.503 37.4773 334.999 36.88C334.495 36.264 333.748 35.956 332.759 35.956C331.77 35.956 331.023 36.264 330.519 36.88C330.015 37.496 329.763 38.308 329.763 39.316V44.804C329.763 45.812 330.015 46.624 330.519 47.24Z" fill="#F5F5F5"/>
<path d="M123.971 198.153C123.971 198.153 129.391 220.242 130.256 223.827C131.266 228.012 133.085 229.552 138.33 228.514L141.715 214.819C142.572 211.417 143.148 208.992 143.699 205.531H143.796C144.184 209.026 144.735 211.427 145.441 214.831C145.441 214.831 146.819 221.048 147.525 224.313C148.232 227.578 150.201 229.635 155.338 228.515L163.403 198.155H156.892L154.139 211.281C153.398 215.102 152.727 218.087 152.209 221.583H152.117C151.646 218.122 151.048 215.255 150.295 211.533L147.428 198.155H140.644L137.578 211.196C136.709 215.158 135.897 218.358 135.38 221.735H135.286C134.757 218.555 134.053 214.533 133.289 210.697C133.289 210.697 131.468 201.37 130.828 198.155L123.971 198.156L123.971 198.153ZM186.04 198.153V228.513H192.24V222.066V198.152H186.04V198.153ZM273.349 198.153V220.55C273.349 223.638 273.933 225.801 275.183 227.123C276.276 228.279 278.075 229.027 280.23 229.027C282.063 229.027 283.866 228.682 284.716 228.367L284.636 223.549C284.004 223.704 283.276 223.828 282.281 223.828C280.17 223.828 279.461 222.482 279.461 219.71V211.141H284.86V205.332H279.461V198.153H273.349ZM172.187 205.191C168.334 205.191 165.276 206.267 163.609 207.225L164.829 211.379C166.355 210.423 168.784 209.631 171.084 209.631C174.892 209.621 175.515 211.773 175.515 213.152V213.479C167.217 213.466 161.975 216.322 161.975 222.143C161.975 225.697 164.644 229.027 169.283 229.027C172.139 229.027 174.528 227.894 175.959 226.079H176.1C176.1 226.079 177.048 230.021 182.27 228.514C181.996 226.873 181.907 225.124 181.907 223.017V214.907C181.907 209.738 179.687 205.191 172.187 205.191ZM209.269 205.191C205.39 205.191 203.647 207.146 202.59 208.805H202.498V205.706H196.582V228.514H202.814V215.138C202.814 214.511 202.886 213.848 203.106 213.271C203.623 211.924 204.882 210.349 206.894 210.349C209.408 210.349 210.585 212.463 210.585 215.515V228.514H216.811V214.976C216.811 214.377 216.893 213.656 217.07 213.127C217.582 211.595 218.94 210.349 220.81 210.349C223.359 210.349 224.583 212.426 224.583 216.017V228.514H230.812V215.081C230.812 207.996 227.195 205.191 223.112 205.191C221.304 205.191 219.877 205.642 218.586 206.43C217.502 207.092 216.531 208.032 215.682 209.271H215.59C214.603 206.813 212.286 205.191 209.268 205.191L209.269 205.191ZM243.491 205.191C239.64 205.191 236.582 206.267 234.914 207.225L236.135 211.379C237.659 210.423 240.09 209.631 242.389 209.631C246.194 209.621 246.818 211.773 246.818 213.152V213.479C238.522 213.466 233.28 216.322 233.28 222.143C233.28 225.697 235.949 229.027 240.591 229.027C243.445 229.027 245.835 227.894 247.263 226.079H247.404C247.404 226.079 248.352 230.021 253.575 228.514C253.301 226.873 253.212 225.124 253.212 223.017V214.907C253.212 209.738 250.993 205.191 243.491 205.191ZM269.372 205.191C266.985 205.191 264.27 206.723 263.13 210.007H262.956V205.706H257.346V228.514H263.742V216.835C263.742 216.204 263.78 215.655 263.88 215.151C264.353 212.705 266.235 211.141 268.935 211.141C269.677 211.141 270.207 211.221 270.781 211.303V205.332C270.3 205.235 269.971 205.191 269.372 205.191ZM175.715 217.52V220.366C175.715 220.786 175.678 221.221 175.561 221.6C175.081 223.181 173.435 224.516 171.377 224.516C169.662 224.516 168.299 223.548 168.299 221.499C168.299 218.366 171.767 217.5 175.715 217.52ZM247.019 217.52V220.366C247.019 220.786 246.982 221.221 246.865 221.6C246.385 223.181 244.74 224.516 242.682 224.516C240.966 224.516 239.603 223.548 239.603 221.499C239.603 218.366 243.071 217.5 247.019 217.52Z" fill="#FFFFFE"/>
<path d="M318.378 187.174C316.377 187.174 314.786 188.285 314.786 189.638L316.002 203.325C316.136 204.15 317.152 204.786 318.38 204.786C319.61 204.784 320.622 204.149 320.759 203.325L321.98 189.638C321.98 188.285 320.385 187.174 318.381 187.174L318.378 187.174ZM298.572 198.153C297.533 198.177 296.353 198.96 295.602 200.254C294.598 201.978 294.776 203.904 295.951 204.58L308.475 210.381C309.258 210.671 310.321 210.118 310.936 209.063C310.936 209.063 310.936 209.063 310.936 209.063C311.554 208.003 311.506 206.81 310.855 206.281L299.543 198.39C299.25 198.221 298.918 198.145 298.572 198.153ZM338.185 198.153C337.839 198.145 337.509 198.221 337.216 198.39L325.902 206.281C325.255 206.81 325.207 208.002 325.822 209.062L325.823 209.063C326.44 210.118 327.499 210.67 328.282 210.381L340.812 204.58C341.992 203.905 342.161 201.978 341.164 200.254C340.41 198.96 339.227 198.177 338.189 198.153L338.185 198.153ZM308.943 216.211C308.781 216.209 308.624 216.234 308.477 216.289L295.952 222.083C294.778 222.762 294.6 224.689 295.604 226.414C296.605 228.135 298.369 228.953 299.544 228.278L310.857 220.393C311.508 219.858 311.556 218.666 310.938 217.607L310.943 217.609C310.443 216.746 309.646 216.221 308.943 216.211ZM327.819 216.211C327.118 216.221 326.322 216.747 325.821 217.609L325.825 217.607C325.21 218.666 325.258 219.858 325.905 220.393L337.218 228.278C338.391 228.953 340.157 228.135 341.163 226.415C342.16 224.689 341.991 222.762 340.812 222.083L328.285 216.289C328.138 216.234 327.981 216.209 327.819 216.211ZM318.377 221.884C317.151 221.885 316.138 222.518 316.004 223.341L314.788 237.027C314.788 238.383 316.379 239.492 318.38 239.492C320.385 239.492 321.979 238.383 321.979 237.027L320.761 223.341C320.624 222.518 319.612 221.885 318.381 221.884H318.377Z" fill="#FFFFFE"/>
<defs>
<linearGradient id="paint0_linear_58_1800" x1="-36.5" y1="246.5" x2="357" y2="77" gradientUnits="userSpaceOnUse">
<stop stop-color="#C51515"/>
<stop offset="1" stop-color="#7E631D"/>
</linearGradient>
</defs>
</svg>
