<svg width="25" height="24" viewBox="0 0 25 24" fill="none" xmlns="http://www.w3.org/2000/svg">
<g clip-path="url(#clip0_2656_613)">
<path fill-rule="evenodd" clip-rule="evenodd" d="M17.0633 6.54784C15.8243 5.36614 14.1708 4.72238 12.4599 4.74884C9.32934 4.74884 6.67052 6.86089 5.7225 9.70489V9.70496C5.21984 11.1953 5.21984 12.8091 5.7225 14.2995H5.7269C6.67931 17.1391 9.33373 19.2512 12.4644 19.2512C14.0804 19.2512 15.4677 18.8378 16.543 18.1077V18.1047C17.8085 17.267 18.6727 15.9486 18.9417 14.4582H12.46V9.83725H23.7787C23.9198 10.6397 23.986 11.4599 23.986 12.2756C23.986 15.9255 22.6816 19.0112 20.412 21.1012L20.4144 21.1031C18.4258 22.9374 15.6964 24 12.46 24C7.92275 24 3.77356 21.4426 1.73645 17.3904V17.3904C0.0344603 13.9996 0.0344645 10.0048 1.73646 6.61401H1.73649L1.73645 6.61398C3.77356 2.5574 7.92274 -1.53086e-05 12.4599 -1.53086e-05C15.4407 -0.03529 18.32 1.08468 20.4893 3.12179L17.0633 6.54784Z" fill="#111111"/>
</g>
<defs>
<clipPath id="clip0_2656_613">
<rect width="24" height="24" fill="white" transform="translate(0.220703)"/>
</clipPath>
</defs>
</svg>
